<svg width="20" height="21" viewBox="0 0 20 21" fill="none" xmlns="http://www.w3.org/2000/svg">
<path d="M19.7358 11.9542L18.0733 5.97272C17.586 4.22039 16.5269 2.68122 15.0645 1.59988C13.602 0.518544 11.82 -0.0429136 10.0018 0.00475648C8.18362 0.0524266 6.43353 0.706489 5.02972 1.86298C3.62592 3.01947 2.64897 4.61201 2.25417 6.38747L0.967042 12.1756C0.824868 12.8152 0.828155 13.4785 0.976661 14.1166C1.12517 14.7548 1.4151 15.3514 1.82505 15.8625C2.235 16.3735 2.75451 16.786 3.34521 17.0694C3.93592 17.3529 4.58274 17.5 5.23792 17.5H6.21267C6.41349 18.489 6.95006 19.3781 7.73144 20.0168C8.51283 20.6555 9.49098 21.0044 10.5002 21.0044C11.5094 21.0044 12.4875 20.6555 13.2689 20.0168C14.0503 19.3781 14.5868 18.489 14.7877 17.5H15.5209C16.1954 17.5 16.8607 17.3441 17.465 17.0445C18.0692 16.7448 18.596 16.3095 19.0041 15.7726C19.4123 15.2357 19.6908 14.6116 19.8179 13.9493C19.9449 13.2869 19.9163 12.6041 19.7358 11.9542ZM10.5002 19.25C9.95919 19.2477 9.43212 19.0784 8.99106 18.7651C8.54999 18.4519 8.21649 18.01 8.03617 17.5H12.9642C12.7838 18.01 12.4503 18.4519 12.0093 18.7651C11.5682 19.0784 11.0411 19.2477 10.5002 19.25ZM17.6104 14.7131C17.3666 15.0366 17.0507 15.2987 16.6878 15.4787C16.3249 15.6587 15.9251 15.7516 15.52 15.75H5.23792C4.84485 15.7499 4.45682 15.6616 4.10247 15.4915C3.74811 15.3214 3.43647 15.0739 3.19056 14.7673C2.94465 14.4606 2.77073 14.1027 2.68166 13.7198C2.59258 13.337 2.59062 12.939 2.67592 12.5553L3.96217 6.76635C4.27223 5.37178 5.03956 4.12088 6.14219 3.21249C7.24482 2.30411 8.61946 1.79037 10.0476 1.75296C11.4757 1.71555 12.8754 2.1566 14.0241 3.00601C15.1727 3.85542 16.0045 5.06443 16.3872 6.44085L18.0497 12.4223C18.1595 12.812 18.177 13.222 18.1008 13.6196C18.0245 14.0173 17.8566 14.3917 17.6104 14.7131Z" fill="white"/>
</svg>
