<svg width="17" height="17" viewBox="0 0 17 17" fill="none" xmlns="http://www.w3.org/2000/svg">
<path d="M16.7834 6.78097C16.6456 6.64797 16.4588 6.57325 16.2639 6.57325C16.0691 6.57325 15.8823 6.64797 15.7445 6.78097L7.74158 14.5415C7.40044 14.871 6.99545 15.1323 6.54971 15.3106C6.10398 15.4889 5.62624 15.5807 5.14377 15.5807C4.16937 15.5808 3.23485 15.2071 2.5458 14.5419C1.85675 13.8767 1.4696 12.9744 1.46954 12.0336C1.46947 11.0927 1.85648 10.1904 2.54543 9.52508L10.2963 2.01069C10.7108 1.61688 11.2696 1.39715 11.8511 1.39937C12.4326 1.40159 12.9896 1.62557 13.4008 2.02254C13.8121 2.41951 14.0442 2.95729 14.0466 3.51875C14.049 4.08021 13.8216 4.61986 13.4138 5.02014L5.66297 12.5345C5.52319 12.6638 5.33709 12.736 5.14351 12.736C4.94993 12.736 4.76382 12.6638 4.62404 12.5345C4.48629 12.4015 4.40891 12.2211 4.40891 12.033C4.40891 11.8448 4.48629 11.6644 4.62404 11.5314L11.5248 4.83781C11.6586 4.70401 11.7327 4.5248 11.731 4.33879C11.7294 4.15278 11.6521 3.97484 11.5159 3.8433C11.3796 3.71177 11.1953 3.63716 11.0027 3.63554C10.81 3.63392 10.6244 3.70543 10.4859 3.83466L3.5851 10.5282C3.38038 10.7259 3.21798 10.9605 3.10719 11.2188C2.99639 11.477 2.93936 11.7538 2.93936 12.0333C2.93936 12.3128 2.99639 12.5896 3.10719 12.8479C3.21798 13.1061 3.38038 13.3407 3.5851 13.5384C4.0051 13.9254 4.56333 14.1413 5.14387 14.1413C5.72441 14.1413 6.28265 13.9254 6.70264 13.5384L14.4528 6.02328C15.1273 5.35521 15.502 4.45745 15.4958 3.52447C15.4896 2.5915 15.103 1.69845 14.4197 1.03877C13.7364 0.379097 12.8114 0.00591548 11.8452 6.97219e-05C10.8789 -0.00577604 9.94918 0.356185 9.25737 1.00754L1.5065 8.52193C0.541904 9.4533 -1.43736e-08 10.7165 0 12.0337C1.43736e-08 13.3508 0.541904 14.614 1.5065 15.5454C2.47109 16.4768 3.77936 17 5.14351 17C6.50765 17 7.81592 16.4768 8.78051 15.5454L16.7834 7.78695C16.852 7.72103 16.9065 7.64265 16.9437 7.55633C16.9809 7.47001 17 7.37745 17 7.28396C17 7.19048 16.9809 7.09791 16.9437 7.01159C16.9065 6.92527 16.852 6.84689 16.7834 6.78097Z" fill="#9C9C9C"/>
</svg>
