<svg width="21" height="21" viewBox="0 0 21 21" fill="none" xmlns="http://www.w3.org/2000/svg">
<path d="M21 7.875L21 4.375C21 1.96263 19.0374 -8.57891e-08 16.625 -1.91237e-07L14.875 -2.67732e-07C13.9099 -3.09919e-07 13.125 0.784875 13.125 1.75L13.125 7.875C13.125 8.84012 13.9099 9.625 14.875 9.625L19.25 9.625C20.2151 9.625 21 8.84013 21 7.875ZM14.875 1.75L16.625 1.75C18.0723 1.75 19.25 2.92775 19.25 4.375L19.25 7.875L14.875 7.87675L14.875 1.75ZM7.875 19.25L7.875 13.125C7.875 12.1599 7.09012 11.375 6.125 11.375L1.75 11.375C0.784875 11.375 -5.31525e-07 12.1599 -5.73712e-07 13.125L-7.26702e-07 16.625C-8.3215e-07 19.0374 1.96262 21 4.375 21L6.125 21C7.09012 21 7.875 20.2151 7.875 19.25ZM4.375 19.25C2.92775 19.25 1.75 18.0722 1.75 16.625L1.75 13.125L6.125 13.125L6.125 19.25L4.375 19.25ZM21 16.625L21 13.125C21 12.1599 20.2151 11.375 19.25 11.375L11.375 11.375C10.4099 11.375 9.625 12.1599 9.625 13.125L9.625 19.25C9.625 20.2151 10.4099 21 11.375 21L16.625 21C19.0374 21 21 19.0374 21 16.625ZM11.375 13.125L19.25 13.125L19.25 16.625C19.25 18.0723 18.0722 19.25 16.625 19.25L11.375 19.2518L11.375 13.125ZM11.375 7.875L11.375 1.75C11.375 0.784875 10.5901 -4.5503e-07 9.625 -4.97217e-07L4.375 -7.26702e-07C1.96263 -8.3215e-07 -8.57891e-08 1.96262 -1.91237e-07 4.375L-3.44227e-07 7.875C-3.86414e-07 8.84012 0.784875 9.625 1.75 9.625L9.625 9.625C10.5901 9.625 11.375 8.84012 11.375 7.875ZM1.75 4.375C1.75 2.92775 2.92775 1.75 4.375 1.75L9.625 1.75L9.625 7.875L1.75 7.87675L1.75 4.375Z" fill="white"/>
</svg>
