<svg width="21" height="21" viewBox="0 0 21 21" fill="none" xmlns="http://www.w3.org/2000/svg">
<path d="M21 7.875V4.375C21 1.96263 19.0374 6.40913e-07 16.625 5.35464e-07L14.875 4.58969e-07C13.9099 4.16782e-07 13.125 0.784875 13.125 1.75L13.125 7.875C13.125 8.84013 13.9099 9.625 14.875 9.625L19.25 9.625C20.2151 9.625 21 8.84013 21 7.875ZM14.875 1.75H16.625C18.0723 1.75 19.25 2.92775 19.25 4.375V7.875L14.875 7.87675L14.875 1.75ZM7.875 19.25V13.125C7.875 12.1599 7.09013 11.375 6.125 11.375H1.75C0.784876 11.375 1.95177e-07 12.1599 1.5299e-07 13.125L0 16.625C-1.05448e-07 19.0374 1.96263 21 4.375 21H6.125C7.09013 21 7.875 20.2151 7.875 19.25ZM4.375 19.25C2.92775 19.25 1.75 18.0723 1.75 16.625L1.75 13.125H6.125V19.25H4.375ZM21 16.625V13.125C21 12.1599 20.2151 11.375 19.25 11.375L11.375 11.375C10.4099 11.375 9.625 12.1599 9.625 13.125V19.25C9.625 20.2151 10.4099 21 11.375 21H16.625C19.0374 21 21 19.0374 21 16.625ZM11.375 13.125L19.25 13.125V16.625C19.25 18.0723 18.0723 19.25 16.625 19.25L11.375 19.2518V13.125ZM11.375 7.875L11.375 1.75C11.375 0.784875 10.5901 2.71672e-07 9.625 2.29485e-07L4.375 0C1.96263 -1.05448e-07 6.40913e-07 1.96263 5.35465e-07 4.375L3.82475e-07 7.875C3.40288e-07 8.84013 0.784876 9.625 1.75 9.625H9.625C10.5901 9.625 11.375 8.84013 11.375 7.875ZM1.75 4.375C1.75 2.92775 2.92775 1.75 4.375 1.75L9.625 1.75L9.625 7.875L1.75 7.87675L1.75 4.375Z" fill="#9C9C9C"/>
</svg>
