<svg width="22" height="21" viewBox="0 0 22 21" fill="none" xmlns="http://www.w3.org/2000/svg">
<g clip-path="url(#clip0_447_660)">
<path d="M10.75 17C9.7835 17 9 17.7835 9 18.75C9 19.7165 9.7835 20.5 10.75 20.5C11.7165 20.5 12.5 19.7165 12.5 18.75C12.5 17.7835 11.7165 17 10.75 17Z" fill="black"/>
<path d="M10.75 8.5C9.7835 8.5 9 9.2835 9 10.25C9 11.2165 9.7835 12 10.75 12C11.7165 12 12.5 11.2165 12.5 10.25C12.5 9.2835 11.7165 8.5 10.75 8.5Z" fill="black"/>
<path d="M10.75 -8.54287e-08C9.7835 -9.34728e-10 9 0.783502 9 1.75C9 2.7165 9.7835 3.5 10.75 3.5C11.7165 3.5 12.5 2.7165 12.5 1.75C12.5 0.783501 11.7165 -1.69923e-07 10.75 -8.54287e-08Z" fill="black"/>
</g>
<defs>
<clipPath id="clip0_447_660">
<rect width="21.5" height="20.5" fill="white" transform="translate(21.5 20.5) rotate(180)"/>
</clipPath>
</defs>
</svg>
