<svg width="5" height="21" viewBox="0 0 5 21" fill="none" xmlns="http://www.w3.org/2000/svg">
<path d="M2.5 17.5C1.5335 17.5 0.750001 18.2835 0.750002 19.25C0.750002 20.2165 1.5335 21 2.5 21C3.4665 21 4.25 20.2165 4.25 19.25C4.25 18.2835 3.4665 17.5 2.5 17.5Z" fill="black"/>
<path d="M2.5 8.75C1.5335 8.75 0.750001 9.5335 0.750001 10.5C0.750001 11.4665 1.5335 12.25 2.5 12.25C3.4665 12.25 4.25 11.4665 4.25 10.5C4.25 9.5335 3.4665 8.75 2.5 8.75Z" fill="black"/>
<path d="M2.5 0C1.5335 8.44944e-08 0.75 0.783502 0.75 1.75C0.75 2.7165 1.5335 3.5 2.5 3.5C3.4665 3.5 4.25 2.7165 4.25 1.75C4.25 0.783502 3.4665 -8.44935e-08 2.5 0Z" fill="black"/>
</svg>
