<svg width="23" height="21" viewBox="0 0 23 21" fill="none" xmlns="http://www.w3.org/2000/svg">
<g clip-path="url(#clip0_310_60)">
<path d="M11.5 17.2524C10.5335 17.2524 9.75 18.0359 9.75 19.0024C9.75 19.9689 10.5335 20.7524 11.5 20.7524C12.4665 20.7524 13.25 19.9689 13.25 19.0024C13.25 18.0359 12.4665 17.2524 11.5 17.2524Z" fill="black"/>
<path d="M11.5 8.75238C10.5335 8.75238 9.75 9.53588 9.75 10.5024C9.75 11.4689 10.5335 12.2524 11.5 12.2524C12.4665 12.2524 13.25 11.4689 13.25 10.5024C13.25 9.53588 12.4665 8.75238 11.5 8.75238Z" fill="black"/>
<path d="M11.5 0.25238C10.5335 0.25238 9.75 1.03588 9.75 2.00238C9.75 2.96888 10.5335 3.75238 11.5 3.75238C12.4665 3.75238 13.25 2.96888 13.25 2.00238C13.25 1.03588 12.4665 0.25238 11.5 0.25238Z" fill="black"/>
</g>
<defs>
<clipPath id="clip0_310_60">
<rect width="21.5" height="20.5" fill="white" transform="translate(22.25 20.7524) rotate(180)"/>
</clipPath>
</defs>
</svg>
