<svg width="11" height="11" viewBox="0 0 11 11" fill="none" xmlns="http://www.w3.org/2000/svg">
<path d="M10.7498 0.250085C10.5858 0.0860476 10.3632 -0.00610352 10.1312 -0.00610352C9.8992 -0.00610352 9.67668 0.0860476 9.51259 0.250085L5.49984 4.26284L1.48709 0.250085C1.323 0.0860476 1.10048 -0.00610352 0.868465 -0.00610352C0.636447 -0.00610352 0.413927 0.0860476 0.249841 0.250085C0.0858034 0.414171 -0.00634766 0.636691 -0.00634766 0.86871C-0.00634766 1.10073 0.0858034 1.32325 0.249841 1.48733L4.26259 5.50008L0.249841 9.51284C0.0858034 9.67692 -0.00634766 9.89944 -0.00634766 10.1315C-0.00634766 10.3635 0.0858034 10.586 0.249841 10.7501C0.413927 10.9141 0.636447 11.0063 0.868465 11.0063C1.10048 11.0063 1.323 10.9141 1.48709 10.7501L5.49984 6.73733L9.51259 10.7501C9.67668 10.9141 9.8992 11.0063 10.1312 11.0063C10.3632 11.0063 10.5858 10.9141 10.7498 10.7501C10.9139 10.586 11.006 10.3635 11.006 10.1315C11.006 9.89944 10.9139 9.67692 10.7498 9.51284L6.73709 5.50008L10.7498 1.48733C10.9139 1.32325 11.006 1.10073 11.006 0.86871C11.006 0.636691 10.9139 0.414171 10.7498 0.250085Z" fill="#9C9C9C"/>
</svg>
