<svg width="17" height="17" viewBox="0 0 17 17" fill="none" xmlns="http://www.w3.org/2000/svg">
<g clip-path="url(#clip0_186_216)">
<path d="M16.7924 10.8325C16.6595 10.6998 16.4794 10.6252 16.2916 10.6252C16.1038 10.6252 15.9236 10.6998 15.7908 10.8325L13.8124 12.8109L11.834 10.8325C11.7004 10.7035 11.5215 10.6321 11.3358 10.6337C11.1501 10.6353 10.9724 10.7098 10.8411 10.8412C10.7098 10.9725 10.6353 11.1502 10.6336 11.3359C10.632 11.5216 10.7034 11.7005 10.8325 11.8341L12.8108 13.8125L10.8325 15.7909C10.7648 15.8562 10.7108 15.9344 10.6737 16.0208C10.6366 16.1072 10.6171 16.2002 10.6162 16.2942C10.6154 16.3883 10.6333 16.4815 10.669 16.5686C10.7046 16.6556 10.7572 16.7347 10.8237 16.8012C10.8902 16.8677 10.9693 16.9203 11.0563 16.956C11.1434 16.9916 11.2366 17.0095 11.3307 17.0087C11.4248 17.0079 11.5177 16.9883 11.6041 16.9512C11.6905 16.9141 11.7687 16.8601 11.834 16.7925L13.8124 14.8141L15.7908 16.7925C15.9244 16.9215 16.1033 16.9929 16.289 16.9913C16.4748 16.9897 16.6524 16.9152 16.7837 16.7838C16.9151 16.6525 16.9896 16.4748 16.9912 16.2891C16.9928 16.1034 16.9214 15.9245 16.7924 15.7909L14.814 13.8125L16.7924 11.8341C16.9252 11.7013 16.9998 11.5212 16.9998 11.3333C16.9998 11.1455 16.9252 10.9654 16.7924 10.8325Z" fill="#FF7474"/>
<path d="M8.5 15.5833C7.09905 15.5833 5.72956 15.1679 4.56471 14.3896C3.39987 13.6113 2.49198 12.505 1.95586 11.2107C1.41974 9.91637 1.27946 8.49215 1.55277 7.11811C1.82609 5.74408 2.50071 4.48195 3.49133 3.49133C4.48195 2.50071 5.74408 1.82609 7.11811 1.55277C8.49215 1.27946 9.91637 1.41974 11.2107 1.95586C12.505 2.49198 13.6113 3.39987 14.3896 4.56471C15.1679 5.72956 15.5833 7.09905 15.5833 8.5C15.5833 8.68787 15.658 8.86803 15.7908 9.00087C15.9236 9.13371 16.1038 9.20834 16.2917 9.20834C16.4795 9.20834 16.6597 9.13371 16.7925 9.00087C16.9254 8.86803 17 8.68787 17 8.5C17 6.81886 16.5015 5.17547 15.5675 3.77766C14.6335 2.37984 13.306 1.29037 11.7528 0.647028C10.1996 0.00368293 8.49058 -0.164645 6.84174 0.163329C5.1929 0.491303 3.67834 1.30085 2.4896 2.4896C1.30085 3.67834 0.491303 5.1929 0.163329 6.84174C-0.164645 8.49058 0.00368293 10.1996 0.647028 11.7528C1.29037 13.306 2.37984 14.6335 3.77766 15.5675C5.17547 16.5015 6.81886 17 8.5 17C8.68787 17 8.86803 16.9254 9.00087 16.7925C9.13371 16.6597 9.20834 16.4795 9.20834 16.2917C9.20834 16.1038 9.13371 15.9236 9.00087 15.7908C8.86803 15.658 8.68787 15.5833 8.5 15.5833Z" fill="#FF7474"/>
<path d="M8.50024 4.25C8.31238 4.25 8.13221 4.32463 7.99937 4.45747C7.86654 4.5903 7.79191 4.77047 7.79191 4.95833V8.20675L5.87445 10.1242C5.8068 10.1895 5.75283 10.2677 5.71571 10.3541C5.67859 10.4405 5.65905 10.5335 5.65823 10.6275C5.65741 10.7216 5.67533 10.8149 5.71095 10.9019C5.74657 10.989 5.79916 11.0681 5.86567 11.1346C5.93218 11.2011 6.01126 11.2537 6.09831 11.2893C6.18537 11.3249 6.27864 11.3428 6.37269 11.342C6.46674 11.3412 6.55969 11.3217 6.64611 11.2845C6.73253 11.2474 6.81069 11.1934 6.87603 11.1258L9.00103 9.00079C9.13388 8.86798 9.20853 8.68785 9.20857 8.5V4.95833C9.20857 4.77047 9.13395 4.5903 9.00111 4.45747C8.86827 4.32463 8.6881 4.25 8.50024 4.25Z" fill="#FF7474"/>
</g>
<defs>
<clipPath id="clip0_186_216">
<rect width="17" height="17" fill="white"/>
</clipPath>
</defs>
</svg>
