<svg width="17" height="17" viewBox="0 0 17 17" fill="none" xmlns="http://www.w3.org/2000/svg">
<path d="M16.7925 10.8325C16.6596 10.6997 16.4795 10.6252 16.2917 10.6252C16.1038 10.6252 15.9237 10.6997 15.7909 10.8325L13.8125 12.8109L11.8341 10.8325C11.7005 10.7035 11.5216 10.6321 11.3359 10.6337C11.1502 10.6353 10.9725 10.7098 10.8412 10.8412C10.7098 10.9725 10.6353 11.1502 10.6337 11.3359C10.6321 11.5216 10.7035 11.7005 10.8325 11.8341L12.8109 13.8125L10.8325 15.7909C10.7649 15.8562 10.7109 15.9344 10.6738 16.0208C10.6367 16.1072 10.6171 16.2002 10.6163 16.2942C10.6155 16.3883 10.6334 16.4815 10.669 16.5686C10.7047 16.6556 10.7573 16.7347 10.8238 16.8012C10.8903 16.8677 10.9694 16.9203 11.0564 16.956C11.1435 16.9916 11.2367 17.0095 11.3308 17.0087C11.4248 17.0079 11.5178 16.9883 11.6042 16.9512C11.6906 16.9141 11.7688 16.8601 11.8341 16.7925L13.8125 14.8141L15.7909 16.7925C15.9245 16.9215 16.1034 16.9929 16.2891 16.9913C16.4748 16.9897 16.6525 16.9152 16.7838 16.7838C16.9152 16.6525 16.9897 16.4748 16.9913 16.2891C16.9929 16.1034 16.9215 15.9245 16.7925 15.7909L14.8141 13.8125L16.7925 11.8341C16.9252 11.7013 16.9998 11.5212 16.9998 11.3333C16.9998 11.1455 16.9252 10.9654 16.7925 10.8325Z" fill="#FF7474"/>
<path d="M8.5 15.5833C7.09905 15.5833 5.72956 15.1679 4.56471 14.3896C3.39987 13.6113 2.49198 12.505 1.95586 11.2107C1.41974 9.91637 1.27946 8.49215 1.55277 7.11811C1.82609 5.74408 2.50071 4.48195 3.49133 3.49133C4.48195 2.50071 5.74408 1.82609 7.11811 1.55277C8.49215 1.27946 9.91637 1.41974 11.2107 1.95586C12.505 2.49198 13.6113 3.39987 14.3896 4.56471C15.1679 5.72956 15.5833 7.09905 15.5833 8.5C15.5833 8.68787 15.658 8.86803 15.7908 9.00087C15.9236 9.13371 16.1038 9.20834 16.2917 9.20834C16.4795 9.20834 16.6597 9.13371 16.7925 9.00087C16.9254 8.86803 17 8.68787 17 8.5C17 6.81886 16.5015 5.17547 15.5675 3.77766C14.6335 2.37984 13.306 1.29037 11.7528 0.647028C10.1996 0.00368297 8.49058 -0.164645 6.84174 0.163329C5.1929 0.491303 3.67834 1.30085 2.4896 2.4896C1.30085 3.67834 0.491303 5.1929 0.163329 6.84174C-0.164645 8.49058 0.00368297 10.1996 0.647028 11.7528C1.29037 13.306 2.37984 14.6335 3.77766 15.5675C5.17547 16.5015 6.81886 17 8.5 17C8.68787 17 8.86803 16.9254 9.00087 16.7925C9.13371 16.6597 9.20834 16.4795 9.20834 16.2917C9.20834 16.1038 9.13371 15.9236 9.00087 15.7908C8.86803 15.658 8.68787 15.5833 8.5 15.5833Z" fill="#FF7474"/>
<path d="M8.5 4.25C8.31214 4.25 8.13197 4.32463 7.99913 4.45747C7.86629 4.5903 7.79167 4.77047 7.79167 4.95833V8.20675L5.87421 10.1242C5.80655 10.1895 5.75259 10.2677 5.71547 10.3541C5.67835 10.4405 5.65881 10.5335 5.65799 10.6275C5.65717 10.7216 5.67509 10.8149 5.71071 10.9019C5.74632 10.989 5.79892 11.0681 5.86543 11.1346C5.93194 11.2011 6.01102 11.2537 6.09807 11.2893C6.18513 11.3249 6.2784 11.3428 6.37245 11.342C6.4665 11.3412 6.55945 11.3217 6.64587 11.2845C6.73229 11.2474 6.81045 11.1934 6.87579 11.1258L9.00079 9.00079C9.13364 8.86798 9.20829 8.68785 9.20833 8.5V4.95833C9.20833 4.77047 9.1337 4.5903 9.00087 4.45747C8.86803 4.32463 8.68786 4.25 8.5 4.25Z" fill="#FF7474"/>
</svg>
