<svg width="19" height="21" viewBox="0 0 19 21" fill="none" xmlns="http://www.w3.org/2000/svg">
<path d="M13.875 12.25C13.875 12.4821 13.7828 12.7046 13.6187 12.8687C13.4546 13.0328 13.2321 13.125 13 13.125H6C5.76794 13.125 5.54538 13.0328 5.38128 12.8687C5.21719 12.7046 5.125 12.4821 5.125 12.25C5.125 12.018 5.21719 11.7954 5.38128 11.6313C5.54538 11.4672 5.76794 11.375 6 11.375H13C13.2321 11.375 13.4546 11.4672 13.6187 11.6313C13.7828 11.7954 13.875 12.018 13.875 12.25ZM10.375 14.875H6C5.76794 14.875 5.54538 14.9672 5.38128 15.1313C5.21719 15.2954 5.125 15.518 5.125 15.75C5.125 15.9821 5.21719 16.2046 5.38128 16.3687C5.54538 16.5328 5.76794 16.625 6 16.625H10.375C10.6071 16.625 10.8296 16.5328 10.9937 16.3687C11.1578 16.2046 11.25 15.9821 11.25 15.75C11.25 15.518 11.1578 15.2954 10.9937 15.1313C10.8296 14.9672 10.6071 14.875 10.375 14.875ZM18.25 9.17439V16.625C18.2486 17.7849 17.7872 18.8969 16.9671 19.7171C16.1469 20.5372 15.0349 20.9986 13.875 21H5.125C3.9651 20.9986 2.85311 20.5372 2.03294 19.7171C1.21277 18.8969 0.751389 17.7849 0.75 16.625V4.37502C0.751389 3.21512 1.21277 2.10313 2.03294 1.28296C2.85311 0.462792 3.9651 0.00140954 5.125 2.01676e-05H9.07562C9.88029 -0.00205089 10.6774 0.155409 11.4208 0.463297C12.1643 0.771184 12.8393 1.22339 13.4069 1.79377L16.4554 4.84402C17.0261 5.41123 17.4786 6.08604 17.7866 6.82937C18.0947 7.5727 18.2522 8.36976 18.25 9.17439ZM12.1696 3.03102C11.8942 2.76429 11.5851 2.53483 11.25 2.34852V6.12502C11.25 6.35708 11.3422 6.57964 11.5063 6.74374C11.6704 6.90783 11.8929 7.00002 12.125 7.00002H15.9015C15.7151 6.66506 15.4853 6.35615 15.2181 6.08127L12.1696 3.03102ZM16.5 9.17439C16.5 9.03002 16.472 8.89177 16.4589 8.75002H12.125C11.4288 8.75002 10.7611 8.47346 10.2688 7.98117C9.77656 7.48889 9.5 6.82121 9.5 6.12502V1.79115C9.35825 1.77802 9.21912 1.75002 9.07562 1.75002H5.125C4.42881 1.75002 3.76113 2.02658 3.26884 2.51886C2.77656 3.01115 2.5 3.67883 2.5 4.37502V16.625C2.5 17.3212 2.77656 17.9889 3.26884 18.4812C3.76113 18.9735 4.42881 19.25 5.125 19.25H13.875C14.5712 19.25 15.2389 18.9735 15.7312 18.4812C16.2234 17.9889 16.5 17.3212 16.5 16.625V9.17439Z" fill="#9C9C9C"/>
</svg>
