<svg width="21" height="21" viewBox="0 0 21 21" fill="none" xmlns="http://www.w3.org/2000/svg">
<g clip-path="url(#clip0_246_1548)">
<path d="M14.875 12.25C14.875 12.4821 14.7828 12.7046 14.6187 12.8687C14.4546 13.0328 14.2321 13.125 14 13.125H7C6.76794 13.125 6.54538 13.0328 6.38128 12.8687C6.21719 12.7046 6.125 12.4821 6.125 12.25C6.125 12.018 6.21719 11.7954 6.38128 11.6313C6.54538 11.4672 6.76794 11.375 7 11.375H14C14.2321 11.375 14.4546 11.4672 14.6187 11.6313C14.7828 11.7954 14.875 12.018 14.875 12.25ZM11.375 14.875H7C6.76794 14.875 6.54538 14.9672 6.38128 15.1313C6.21719 15.2954 6.125 15.518 6.125 15.75C6.125 15.9821 6.21719 16.2046 6.38128 16.3687C6.54538 16.5328 6.76794 16.625 7 16.625H11.375C11.6071 16.625 11.8296 16.5328 11.9937 16.3687C12.1578 16.2046 12.25 15.9821 12.25 15.75C12.25 15.518 12.1578 15.2954 11.9937 15.1313C11.8296 14.9672 11.6071 14.875 11.375 14.875ZM19.25 9.17439V16.625C19.2486 17.7849 18.7872 18.8969 17.9671 19.7171C17.1469 20.5372 16.0349 20.9986 14.875 21H6.125C4.9651 20.9986 3.85311 20.5372 3.03294 19.7171C2.21277 18.8969 1.75139 17.7849 1.75 16.625V4.37502C1.75139 3.21512 2.21277 2.10313 3.03294 1.28296C3.85311 0.462792 4.9651 0.00140954 6.125 2.01676e-05H10.0756C10.8803 -0.00205089 11.6774 0.155409 12.4208 0.463297C13.1643 0.771184 13.8393 1.22339 14.4069 1.79377L17.4554 4.84402C18.0261 5.41123 18.4786 6.08604 18.7866 6.82937C19.0947 7.5727 19.2522 8.36976 19.25 9.17439ZM13.1696 3.03102C12.8942 2.76429 12.5851 2.53483 12.25 2.34852V6.12502C12.25 6.35708 12.3422 6.57964 12.5063 6.74374C12.6704 6.90783 12.8929 7.00002 13.125 7.00002H16.9015C16.7151 6.66506 16.4853 6.35615 16.2181 6.08127L13.1696 3.03102ZM17.5 9.17439C17.5 9.03002 17.472 8.89177 17.4589 8.75002H13.125C12.4288 8.75002 11.7611 8.47346 11.2688 7.98117C10.7766 7.48889 10.5 6.82121 10.5 6.12502V1.79115C10.3582 1.77802 10.2191 1.75002 10.0756 1.75002H6.125C5.42881 1.75002 4.76113 2.02658 4.26884 2.51886C3.77656 3.01115 3.5 3.67883 3.5 4.37502V16.625C3.5 17.3212 3.77656 17.9889 4.26884 18.4812C4.76113 18.9735 5.42881 19.25 6.125 19.25H14.875C15.5712 19.25 16.2389 18.9735 16.7312 18.4812C17.2234 17.9889 17.5 17.3212 17.5 16.625V9.17439Z" fill="#9C9C9C"/>
</g>
<defs>
<clipPath id="clip0_246_1548">
<rect width="21" height="21" fill="white"/>
</clipPath>
</defs>
</svg>
