<svg width="23" height="21" viewBox="0 0 23 21" fill="none" xmlns="http://www.w3.org/2000/svg">
<mask id="path-1-inside-1_310_155" fill="white">
<path fill-rule="evenodd" clip-rule="evenodd" d="M1.97275 2.01002C-0.657583 4.69004 -0.657582 9.03522 1.97275 11.7152L10.7976 20.7068C10.9914 20.9043 11.2456 21.0028 11.4997 21.0024C11.7537 21.0028 12.0079 20.9043 12.2018 20.7068L21.0266 11.7152C23.6569 9.03522 23.6569 4.69004 21.0266 2.01002C18.3962 -0.670005 14.1316 -0.670007 11.5013 2.01002L11.4997 2.0117L11.498 2.01002C8.86768 -0.670007 4.60308 -0.670005 1.97275 2.01002Z"/>
</mask>
<path d="M1.97275 11.7152L0.545362 13.1162L1.97275 11.7152ZM1.97275 2.01002L0.545361 0.6091L0.545361 0.6091L1.97275 2.01002ZM10.7976 20.7068L9.37017 22.1077L9.37017 22.1077L10.7976 20.7068ZM11.4997 21.0024L11.503 19.0024L11.4963 19.0024L11.4997 21.0024ZM12.2018 20.7068L13.6292 22.1077L13.6292 22.1077L12.2018 20.7068ZM21.0266 11.7152L22.454 13.1162L21.0266 11.7152ZM21.0266 2.01002L22.454 0.6091V0.6091L21.0266 2.01002ZM11.5013 2.01002L12.9285 3.41112L12.9287 3.41093L11.5013 2.01002ZM11.4997 2.0117L10.0721 3.41239L11.4993 4.86701L12.9269 3.4128L11.4997 2.0117ZM11.498 2.01002L12.9256 0.609327L12.9254 0.609099L11.498 2.01002ZM3.40013 10.3143C1.53329 8.41222 1.53329 5.31305 3.40013 3.41094L0.545361 0.6091C-2.84845 4.06703 -2.84845 9.65823 0.545362 13.1162L3.40013 10.3143ZM12.2249 19.3059L3.40013 10.3143L0.545362 13.1162L9.37017 22.1077L12.2249 19.3059ZM11.4963 19.0024C11.7641 19.0019 12.0306 19.1079 12.2249 19.3059L9.37017 22.1077C9.95216 22.7007 10.7271 23.0037 11.503 23.0024L11.4963 19.0024ZM11.4963 23.0024C12.2722 23.0037 13.0472 22.7007 13.6292 22.1077L10.7744 19.3059C10.9687 19.1079 11.2353 19.0019 11.503 19.0024L11.4963 23.0024ZM13.6292 22.1077L22.454 13.1162L19.5992 10.3143L10.7744 19.3059L13.6292 22.1077ZM22.454 13.1162C25.8478 9.65823 25.8478 4.06703 22.454 0.6091L19.5992 3.41094C21.466 5.31305 21.466 8.41222 19.5992 10.3143L22.454 13.1162ZM22.454 0.6091C19.0397 -2.8697 13.4882 -2.8697 10.0739 0.609099L12.9287 3.41093C14.7751 1.52969 17.7528 1.52969 19.5992 3.41094L22.454 0.6091ZM10.0741 0.608915L10.0725 0.610597L12.9269 3.4128L12.9285 3.41112L10.0741 0.608915ZM10.0704 3.41071L10.0721 3.41239L12.9273 0.611009L12.9256 0.609327L10.0704 3.41071ZM3.40013 3.41094C5.2465 1.52969 8.22426 1.52969 10.0706 3.41093L12.9254 0.609099C9.5111 -2.8697 3.95965 -2.8697 0.545361 0.6091L3.40013 3.41094Z" fill="#5E9EFF" mask="url(#path-1-inside-1_310_155)"/>
</svg>
