<svg width="17" height="17" viewBox="0 0 17 17" fill="none" xmlns="http://www.w3.org/2000/svg">
<path d="M8.5 17C3.81296 17 0 13.187 0 8.5C0 3.81296 3.81296 0 8.5 0C13.187 0 17 3.81296 17 8.5C17 13.187 13.187 17 8.5 17ZM8.5 1.41667C4.59425 1.41667 1.41667 4.59425 1.41667 8.5C1.41667 12.4057 4.59425 15.5833 8.5 15.5833C12.4057 15.5833 15.5833 12.4057 15.5833 8.5C15.5833 4.59425 12.4057 1.41667 8.5 1.41667ZM12.0417 8.5C12.0417 8.10829 11.725 7.79167 11.3333 7.79167H9.20833V4.25C9.20833 3.85829 8.891 3.54167 8.5 3.54167C8.109 3.54167 7.79167 3.85829 7.79167 4.25V8.5C7.79167 8.89171 8.109 9.20833 8.5 9.20833H11.3333C11.725 9.20833 12.0417 8.89171 12.0417 8.5Z" fill="#5E9EFF"/>
</svg>
