<svg width="21" height="21" viewBox="0 0 21 21" fill="none" xmlns="http://www.w3.org/2000/svg">
<path d="M10.5 14.875C8.085 14.875 6.125 12.915 6.125 10.5C6.125 8.085 8.085 6.125 10.5 6.125C12.915 6.125 14.875 8.085 14.875 10.5C14.875 12.915 12.915 14.875 10.5 14.875ZM10.5 7.875C9.05625 7.875 7.875 9.05625 7.875 10.5C7.875 11.9438 9.05625 13.125 10.5 13.125C11.9438 13.125 13.125 11.9438 13.125 10.5C13.125 9.05625 11.9438 7.875 10.5 7.875ZM11.375 3.5V0.875C11.375 0.39375 10.9812 0 10.5 0C10.0188 0 9.625 0.39375 9.625 0.875V3.5C9.625 3.98125 10.0188 4.375 10.5 4.375C10.9812 4.375 11.375 3.98125 11.375 3.5ZM11.375 20.125V17.5C11.375 17.0187 10.9812 16.625 10.5 16.625C10.0188 16.625 9.625 17.0187 9.625 17.5V20.125C9.625 20.6063 10.0188 21 10.5 21C10.9812 21 11.375 20.6063 11.375 20.125ZM4.375 10.5C4.375 10.0188 3.98125 9.625 3.5 9.625H0.875C0.39375 9.625 0 10.0188 0 10.5C0 10.9812 0.39375 11.375 0.875 11.375H3.5C3.98125 11.375 4.375 10.9812 4.375 10.5ZM21 10.5C21 10.0188 20.6063 9.625 20.125 9.625H17.5C17.0187 9.625 16.625 10.0188 16.625 10.5C16.625 10.9812 17.0187 11.375 17.5 11.375H20.125C20.6063 11.375 21 10.9812 21 10.5ZM5.87125 5.87125C6.2125 5.53 6.2125 4.97875 5.87125 4.6375L4.12125 2.8875C3.78 2.54625 3.22875 2.54625 2.8875 2.8875C2.54625 3.22875 2.54625 3.78 2.8875 4.12125L4.6375 5.87125C4.8125 6.04625 5.03125 6.125 5.25875 6.125C5.48625 6.125 5.705 6.0375 5.88 5.87125H5.87125ZM18.1213 18.1213C18.4625 17.78 18.4625 17.2288 18.1213 16.8875L16.3713 15.1375C16.03 14.7962 15.4787 14.7962 15.1375 15.1375C14.7962 15.4787 14.7962 16.03 15.1375 16.3713L16.8875 18.1213C17.0625 18.2962 17.2812 18.375 17.5088 18.375C17.7362 18.375 17.955 18.2875 18.13 18.1213H18.1213ZM4.12125 18.1213L5.87125 16.3713C6.2125 16.03 6.2125 15.4787 5.87125 15.1375C5.53 14.7962 4.97875 14.7962 4.6375 15.1375L2.8875 16.8875C2.54625 17.2288 2.54625 17.78 2.8875 18.1213C3.0625 18.2962 3.28125 18.375 3.50875 18.375C3.73625 18.375 3.955 18.2875 4.13 18.1213H4.12125ZM16.3713 5.87125L18.1213 4.12125C18.4625 3.78 18.4625 3.22875 18.1213 2.8875C17.78 2.54625 17.2288 2.54625 16.8875 2.8875L15.1375 4.6375C14.7962 4.97875 14.7962 5.53 15.1375 5.87125C15.3125 6.04625 15.5312 6.125 15.7587 6.125C15.9862 6.125 16.205 6.0375 16.38 5.87125H16.3713Z" fill="white"/>
</svg>
