<svg width="21" height="21" viewBox="0 0 21 21" fill="none" xmlns="http://www.w3.org/2000/svg">
<path d="M16.625 0.875H4.375C1.96263 0.875 0 2.83763 0 5.25V15.75C0 18.1624 1.96263 20.125 4.375 20.125H16.625C19.0374 20.125 21 18.1624 21 15.75V5.25C21 2.83763 19.0374 0.875 16.625 0.875ZM19.25 15.75C19.25 17.1973 18.0723 18.375 16.625 18.375H4.375C2.92775 18.375 1.75 17.1973 1.75 15.75V5.25C1.75 3.80275 2.92775 2.625 4.375 2.625H16.625C18.0723 2.625 19.25 3.80275 19.25 5.25V15.75ZM16.625 6.125C16.625 6.608 16.233 7 15.75 7H9.625C9.142 7 8.75 6.608 8.75 6.125C8.75 5.642 9.142 5.25 9.625 5.25H15.75C16.233 5.25 16.625 5.642 16.625 6.125ZM7 6.125C7 6.8495 6.412 7.4375 5.6875 7.4375C4.963 7.4375 4.375 6.8495 4.375 6.125C4.375 5.4005 4.963 4.8125 5.6875 4.8125C6.412 4.8125 7 5.4005 7 6.125ZM16.625 10.5C16.625 10.983 16.233 11.375 15.75 11.375H9.625C9.142 11.375 8.75 10.983 8.75 10.5C8.75 10.017 9.142 9.625 9.625 9.625H15.75C16.233 9.625 16.625 10.017 16.625 10.5ZM7 10.5C7 11.2245 6.412 11.8125 5.6875 11.8125C4.963 11.8125 4.375 11.2245 4.375 10.5C4.375 9.7755 4.963 9.1875 5.6875 9.1875C6.412 9.1875 7 9.7755 7 10.5ZM16.625 14.875C16.625 15.358 16.233 15.75 15.75 15.75H9.625C9.142 15.75 8.75 15.358 8.75 14.875C8.75 14.392 9.142 14 9.625 14H15.75C16.233 14 16.625 14.392 16.625 14.875ZM7 14.875C7 15.5995 6.412 16.1875 5.6875 16.1875C4.963 16.1875 4.375 15.5995 4.375 14.875C4.375 14.1505 4.963 13.5625 5.6875 13.5625C6.412 13.5625 7 14.1505 7 14.875Z" fill="#9C9C9C"/>
</svg>
