<svg width="21" height="21" viewBox="0 0 21 21" fill="none" xmlns="http://www.w3.org/2000/svg">
<path d="M16.625 0H4.375C1.96263 0 0 2.14105 0 4.77273V16.2273C0 18.859 1.96263 21 4.375 21H16.625C19.0374 21 21 18.859 21 16.2273V4.77273C21 2.14105 19.0374 0 16.625 0ZM19.25 16.2273C19.25 17.8061 18.0723 19.0909 16.625 19.0909H4.375C2.92775 19.0909 1.75 17.8061 1.75 16.2273V4.77273C1.75 3.19391 2.92775 1.90909 4.375 1.90909H16.625C18.0723 1.90909 19.25 3.19391 19.25 4.77273V16.2273ZM16.625 5.72727C16.625 6.25418 16.233 6.68182 15.75 6.68182H9.625C9.142 6.68182 8.75 6.25418 8.75 5.72727C8.75 5.20036 9.142 4.77273 9.625 4.77273H15.75C16.233 4.77273 16.625 5.20036 16.625 5.72727ZM7 5.72727C7 6.51764 6.412 7.15909 5.6875 7.15909C4.963 7.15909 4.375 6.51764 4.375 5.72727C4.375 4.93691 4.963 4.29545 5.6875 4.29545C6.412 4.29545 7 4.93691 7 5.72727ZM16.625 10.5C16.625 11.0269 16.233 11.4545 15.75 11.4545H9.625C9.142 11.4545 8.75 11.0269 8.75 10.5C8.75 9.97309 9.142 9.54545 9.625 9.54545H15.75C16.233 9.54545 16.625 9.97309 16.625 10.5ZM7 10.5C7 11.2904 6.412 11.9318 5.6875 11.9318C4.963 11.9318 4.375 11.2904 4.375 10.5C4.375 9.70964 4.963 9.06818 5.6875 9.06818C6.412 9.06818 7 9.70964 7 10.5ZM16.625 15.2727C16.625 15.7996 16.233 16.2273 15.75 16.2273H9.625C9.142 16.2273 8.75 15.7996 8.75 15.2727C8.75 14.7458 9.142 14.3182 9.625 14.3182H15.75C16.233 14.3182 16.625 14.7458 16.625 15.2727ZM7 15.2727C7 16.0631 6.412 16.7045 5.6875 16.7045C4.963 16.7045 4.375 16.0631 4.375 15.2727C4.375 14.4824 4.963 13.8409 5.6875 13.8409C6.412 13.8409 7 14.4824 7 15.2727Z" fill="#9C9C9C"/>
</svg>
