<svg width="21" height="21" viewBox="0 0 21 21" fill="none" xmlns="http://www.w3.org/2000/svg">
<g clip-path="url(#clip0_246_1232)">
<path d="M19.9752 8.02549L16.5811 4.63137C16.4161 4.47198 16.1951 4.38378 15.9656 4.38578C15.7362 4.38777 15.5168 4.47979 15.3545 4.64202C15.1923 4.80426 15.1003 5.02372 15.0983 5.25314C15.0963 5.48256 15.1845 5.70359 15.3439 5.86861L18.738 9.26274C18.8388 9.36558 18.927 9.48015 19.0005 9.60399C18.9874 9.60399 18.9769 9.59699 18.9637 9.59699L5.24023 9.62499C5.00817 9.62499 4.78561 9.71718 4.62152 9.88127C4.45742 10.0454 4.36523 10.2679 4.36523 10.5C4.36523 10.7321 4.45742 10.9546 4.62152 11.1187C4.78561 11.2828 5.00817 11.375 5.24023 11.375L18.9585 11.347C18.983 11.347 19.0031 11.3347 19.0267 11.333C18.9491 11.481 18.8507 11.6171 18.7345 11.7372L15.3404 15.1314C15.2568 15.2121 15.1901 15.3086 15.1443 15.4154C15.0984 15.5221 15.0743 15.637 15.0733 15.7531C15.0723 15.8693 15.0944 15.9845 15.1384 16.0921C15.1824 16.1996 15.2474 16.2973 15.3295 16.3795C15.4117 16.4616 15.5094 16.5266 15.6169 16.5706C15.7244 16.6146 15.8397 16.6367 15.9558 16.6357C16.072 16.6347 16.1868 16.6106 16.2936 16.5647C16.4003 16.5188 16.4969 16.4522 16.5776 16.3686L19.9717 12.9745C20.6279 12.3181 20.9965 11.4281 20.9965 10.5C20.9965 9.57192 20.6279 8.68184 19.9717 8.02549H19.9752Z" fill="#9C9C9C"/>
<path d="M6.125 19.25H4.375C3.67881 19.25 3.01113 18.9734 2.51884 18.4812C2.02656 17.9889 1.75 17.3212 1.75 16.625V4.375C1.75 3.67881 2.02656 3.01113 2.51884 2.51884C3.01113 2.02656 3.67881 1.75 4.375 1.75H6.125C6.35706 1.75 6.57962 1.65781 6.74372 1.49372C6.90781 1.32962 7 1.10706 7 0.875C7 0.642936 6.90781 0.420376 6.74372 0.256282C6.57962 0.0921872 6.35706 0 6.125 0L4.375 0C3.2151 0.00138938 2.10311 0.462772 1.28294 1.28294C0.462772 2.10311 0.00138938 3.2151 0 4.375L0 16.625C0.00138938 17.7849 0.462772 18.8969 1.28294 19.7171C2.10311 20.5372 3.2151 20.9986 4.375 21H6.125C6.35706 21 6.57962 20.9078 6.74372 20.7437C6.90781 20.5796 7 20.3571 7 20.125C7 19.8929 6.90781 19.6704 6.74372 19.5063C6.57962 19.3422 6.35706 19.25 6.125 19.25Z" fill="#9C9C9C"/>
</g>
<defs>
<clipPath id="clip0_246_1232">
<rect width="21" height="21" fill="white"/>
</clipPath>
</defs>
</svg>
