<svg width="21" height="21" viewBox="0 0 21 21" fill="none" xmlns="http://www.w3.org/2000/svg">
<path d="M19.9754 8.0255L16.5812 4.63138C16.4162 4.47199 16.1952 4.38379 15.9658 4.38579C15.7364 4.38778 15.5169 4.4798 15.3547 4.64203C15.1924 4.80427 15.1004 5.02373 15.0984 5.25315C15.0964 5.48257 15.1846 5.7036 15.344 5.86862L18.7381 9.26275C18.839 9.36559 18.9271 9.48016 19.0006 9.604C18.9875 9.604 18.977 9.597 18.9639 9.597L5.24037 9.625C5.00831 9.625 4.78575 9.71719 4.62166 9.88128C4.45756 10.0454 4.36537 10.2679 4.36537 10.5C4.36537 10.7321 4.45756 10.9546 4.62166 11.1187C4.78575 11.2828 5.00831 11.375 5.24037 11.375L18.9586 11.347C18.9831 11.347 19.0032 11.3347 19.0269 11.333C18.9493 11.481 18.8508 11.6171 18.7346 11.7372L15.3405 15.1314C15.2569 15.2121 15.1903 15.3086 15.1444 15.4154C15.0986 15.5221 15.0744 15.637 15.0734 15.7531C15.0724 15.8693 15.0945 15.9845 15.1385 16.0921C15.1825 16.1996 15.2475 16.2973 15.3297 16.3795C15.4118 16.4616 15.5095 16.5266 15.617 16.5706C15.7246 16.6146 15.8398 16.6367 15.956 16.6357C16.0722 16.6347 16.187 16.6106 16.2937 16.5647C16.4005 16.5189 16.497 16.4522 16.5777 16.3686L19.9719 12.9745C20.628 12.3182 20.9966 11.4281 20.9966 10.5C20.9966 9.57193 20.628 8.68185 19.9719 8.0255H19.9754Z" fill="#9C9C9C"/>
<path d="M6.125 19.25H4.375C3.67881 19.25 3.01113 18.9734 2.51884 18.4812C2.02656 17.9889 1.75 17.3212 1.75 16.625V4.375C1.75 3.67881 2.02656 3.01113 2.51884 2.51884C3.01113 2.02656 3.67881 1.75 4.375 1.75H6.125C6.35706 1.75 6.57962 1.65781 6.74372 1.49372C6.90781 1.32962 7 1.10706 7 0.875C7 0.642936 6.90781 0.420376 6.74372 0.256282C6.57962 0.0921873 6.35706 0 6.125 0H4.375C3.2151 0.00138938 2.10311 0.462772 1.28294 1.28294C0.462772 2.10311 0.00138938 3.2151 0 4.375V16.625C0.00138938 17.7849 0.462772 18.8969 1.28294 19.7171C2.10311 20.5372 3.2151 20.9986 4.375 21H6.125C6.35706 21 6.57962 20.9078 6.74372 20.7437C6.90781 20.5796 7 20.3571 7 20.125C7 19.8929 6.90781 19.6704 6.74372 19.5063C6.57962 19.3422 6.35706 19.25 6.125 19.25Z" fill="#9C9C9C"/>
</svg>
