<svg width="45" height="45" viewBox="0 0 45 45" fill="none" xmlns="http://www.w3.org/2000/svg">
<rect width="45" height="45" rx="10" fill="#464646"/>
<path d="M7.47487 9.94975C6.10804 8.58291 6.10804 6.36683 7.47487 5L22.507 20.0321L37.5392 5C38.906 6.36683 38.906 8.58291 37.5392 9.94975L26.7389 20.75H36.5C38.433 20.75 40 22.317 40 24.25H24.25V40H20.75V24.25H5C5 22.317 6.567 20.75 8.5 20.75H18.2751L7.47487 9.94975Z" fill="white"/>
<path fill-rule="evenodd" clip-rule="evenodd" d="M5 26V36.5C5 38.433 6.567 40 8.5 40H19V26H5ZM15.5 29.5H8.5V36.5H15.5V29.5Z" fill="white"/>
<path fill-rule="evenodd" clip-rule="evenodd" d="M26 26H40V36.5C40 38.433 38.433 40 36.5 40H26V26ZM29.5 29.5H36.5V36.5H29.5V29.5Z" fill="white"/>
</svg>
