<svg width="19" height="22" viewBox="0 0 19 22" fill="none" xmlns="http://www.w3.org/2000/svg">
<path d="M13 14.5C13 14.7321 12.9078 14.9546 12.7437 15.1187C12.5796 15.2828 12.3571 15.375 12.125 15.375H10.375V17.125C10.375 17.3571 10.2828 17.5796 10.1187 17.7437C9.95462 17.9078 9.73207 18 9.5 18C9.26794 18 9.04538 17.9078 8.88128 17.7437C8.71719 17.5796 8.625 17.3571 8.625 17.125V15.375H6.875C6.64294 15.375 6.42038 15.2828 6.25628 15.1187C6.09219 14.9546 6 14.7321 6 14.5C6 14.268 6.09219 14.0454 6.25628 13.8813C6.42038 13.7172 6.64294 13.625 6.875 13.625H8.625V11.875C8.625 11.643 8.71719 11.4204 8.88128 11.2563C9.04538 11.0922 9.26794 11 9.5 11C9.73207 11 9.95462 11.0922 10.1187 11.2563C10.2828 11.4204 10.375 11.643 10.375 11.875V13.625H12.125C12.3571 13.625 12.5796 13.7172 12.7437 13.8813C12.9078 14.0454 13 14.268 13 14.5ZM18.25 9.6744V17.125C18.2486 18.2849 17.7872 19.3969 16.9671 20.2171C16.1469 21.0373 15.0349 21.4986 13.875 21.5H5.125C3.9651 21.4986 2.85311 21.0373 2.03294 20.2171C1.21277 19.3969 0.751389 18.2849 0.75 17.125V4.87502C0.751389 3.71512 1.21277 2.60313 2.03294 1.78296C2.85311 0.962792 3.9651 0.50141 5.125 0.50002H9.07563C9.88029 0.497949 10.6774 0.655409 11.4208 0.963297C12.1643 1.27118 12.8393 1.72339 13.4069 2.29377L16.4554 5.34402C17.0261 5.91123 17.4786 6.58605 17.7866 7.32937C18.0947 8.0727 18.2522 8.86977 18.25 9.6744ZM12.1696 3.53102C11.8942 3.26429 11.5851 3.03483 11.25 2.84852V6.62502C11.25 6.85708 11.3422 7.07964 11.5063 7.24374C11.6704 7.40783 11.8929 7.50002 12.125 7.50002H15.9015C15.7151 7.16506 15.4853 6.85615 15.2181 6.58127L12.1696 3.53102ZM16.5 9.6744C16.5 9.53002 16.472 9.39177 16.4589 9.25002H12.125C11.4288 9.25002 10.7611 8.97346 10.2688 8.48118C9.77656 7.98889 9.5 7.32121 9.5 6.62502V2.29115C9.35825 2.27802 9.21913 2.25002 9.07563 2.25002H5.125C4.42881 2.25002 3.76113 2.52658 3.26884 3.01887C2.77656 3.51115 2.5 4.17883 2.5 4.87502V17.125C2.5 17.8212 2.77656 18.4889 3.26884 18.9812C3.76113 19.4735 4.42881 19.75 5.125 19.75H13.875C14.5712 19.75 15.2389 19.4735 15.7312 18.9812C16.2234 18.4889 16.5 17.8212 16.5 17.125V9.6744Z" fill="white"/>
</svg>
