<svg width="19" height="21" viewBox="0 0 19 21" fill="none" xmlns="http://www.w3.org/2000/svg">
<path d="M13 14C13 14.2321 12.9078 14.4546 12.7437 14.6187C12.5796 14.7828 12.3571 14.875 12.125 14.875H10.375V16.625C10.375 16.8571 10.2828 17.0796 10.1187 17.2437C9.95462 17.4078 9.73207 17.5 9.5 17.5C9.26794 17.5 9.04538 17.4078 8.88128 17.2437C8.71719 17.0796 8.625 16.8571 8.625 16.625V14.875H6.875C6.64294 14.875 6.42038 14.7828 6.25628 14.6187C6.09219 14.4546 6 14.2321 6 14C6 13.768 6.09219 13.5454 6.25628 13.3813C6.42038 13.2172 6.64294 13.125 6.875 13.125H8.625V11.375C8.625 11.143 8.71719 10.9204 8.88128 10.7563C9.04538 10.5922 9.26794 10.5 9.5 10.5C9.73207 10.5 9.95462 10.5922 10.1187 10.7563C10.2828 10.9204 10.375 11.143 10.375 11.375V13.125H12.125C12.3571 13.125 12.5796 13.2172 12.7437 13.3813C12.9078 13.5454 13 13.768 13 14ZM18.25 9.1744V16.625C18.2486 17.7849 17.7872 18.8969 16.9671 19.7171C16.1469 20.5373 15.0349 20.9986 13.875 21H5.125C3.9651 20.9986 2.85311 20.5373 2.03294 19.7171C1.21277 18.8969 0.751389 17.7849 0.75 16.625V4.37502C0.751389 3.21512 1.21277 2.10313 2.03294 1.28296C2.85311 0.462792 3.9651 0.00140954 5.125 2.01676e-05H9.07563C9.88029 -0.00205089 10.6774 0.155409 11.4208 0.463297C12.1643 0.771185 12.8393 1.22339 13.4069 1.79377L16.4554 4.84402C17.0261 5.41123 17.4786 6.08605 17.7866 6.82937C18.0947 7.5727 18.2522 8.36977 18.25 9.1744ZM12.1696 3.03102C11.8942 2.76429 11.5851 2.53483 11.25 2.34852V6.12502C11.25 6.35708 11.3422 6.57964 11.5063 6.74374C11.6704 6.90783 11.8929 7.00002 12.125 7.00002H15.9015C15.7151 6.66506 15.4853 6.35615 15.2181 6.08127L12.1696 3.03102ZM16.5 9.1744C16.5 9.03002 16.472 8.89177 16.4589 8.75002H12.125C11.4288 8.75002 10.7611 8.47346 10.2688 7.98118C9.77656 7.48889 9.5 6.82121 9.5 6.12502V1.79115C9.35825 1.77802 9.21913 1.75002 9.07563 1.75002H5.125C4.42881 1.75002 3.76113 2.02658 3.26884 2.51887C2.77656 3.01115 2.5 3.67883 2.5 4.37502V16.625C2.5 17.3212 2.77656 17.9889 3.26884 18.4812C3.76113 18.9735 4.42881 19.25 5.125 19.25H13.875C14.5712 19.25 15.2389 18.9735 15.7312 18.4812C16.2234 17.9889 16.5 17.3212 16.5 16.625V9.1744Z" fill="white"/>
</svg>
