<svg width="21" height="21" viewBox="0 0 21 21" fill="none" xmlns="http://www.w3.org/2000/svg">
<path d="M16.625 2.625H10.913C10.7777 2.62589 10.6439 2.59597 10.5219 2.5375L7.76037 1.1515C7.39584 0.969977 6.99423 0.875338 6.587 0.875H4.375C3.2151 0.876389 2.10311 1.33777 1.28294 2.15794C0.462772 2.97811 0.00138938 4.0901 0 5.25V15.75C0.00138938 16.9099 0.462772 18.0219 1.28294 18.8421C2.10311 19.6622 3.2151 20.1236 4.375 20.125H16.625C17.7849 20.1236 18.8969 19.6622 19.7171 18.8421C20.5372 18.0219 20.9986 16.9099 21 15.75V7C20.9986 5.8401 20.5372 4.72811 19.7171 3.90794C18.8969 3.08777 17.7849 2.62639 16.625 2.625ZM4.375 2.625H6.587C6.72233 2.62411 6.85608 2.65403 6.97812 2.7125L9.73962 4.09412C10.1038 4.27716 10.5054 4.3733 10.913 4.375H16.625C17.1483 4.37585 17.6594 4.53309 18.0926 4.82651C18.5259 5.11993 18.8616 5.53616 19.0566 6.02175L1.75 6.11975V5.25C1.75 4.55381 2.02656 3.88613 2.51884 3.39384C3.01113 2.90156 3.67881 2.625 4.375 2.625ZM16.625 18.375H4.375C3.67881 18.375 3.01113 18.0984 2.51884 17.6062C2.02656 17.1139 1.75 16.4462 1.75 15.75V7.86975L19.25 7.77087V15.75C19.25 16.4462 18.9734 17.1139 18.4812 17.6062C17.9889 18.0984 17.3212 18.375 16.625 18.375Z" fill="#9C9C9C"/>
</svg>
