<svg width="19" height="21" viewBox="0 0 19 21" fill="none" xmlns="http://www.w3.org/2000/svg">
<path d="M9.49982 7C8.80759 7 8.1309 7.20527 7.55533 7.58986C6.97976 7.97444 6.53115 8.52107 6.26624 9.16061C6.00134 9.80015 5.93203 10.5039 6.06707 11.1828C6.20212 11.8617 6.53547 12.4854 7.02495 12.9749C7.51443 13.4644 8.13807 13.7977 8.81701 13.9327C9.49594 14.0678 10.1997 13.9985 10.8392 13.7336C11.4788 13.4687 12.0254 13.0201 12.41 12.4445C12.7946 11.8689 12.9998 11.1922 12.9998 10.5C12.9998 9.57174 12.6311 8.6815 11.9747 8.02513C11.3183 7.36875 10.4281 7 9.49982 7ZM9.49982 12.25C9.15371 12.25 8.81536 12.1474 8.52758 11.9551C8.23979 11.7628 8.01549 11.4895 7.88303 11.1697C7.75058 10.8499 7.71593 10.4981 7.78345 10.1586C7.85097 9.81913 8.01765 9.50731 8.26239 9.26256C8.50713 9.01782 8.81895 8.85115 9.15842 8.78363C9.49788 8.7161 9.84975 8.75076 10.1695 8.88321C10.4893 9.01566 10.7626 9.23997 10.9549 9.52775C11.1472 9.81554 11.2498 10.1539 11.2498 10.5C11.2498 10.9641 11.0654 11.4092 10.7373 11.7374C10.4091 12.0656 9.96395 12.25 9.49982 12.25Z" fill="#9C9C9C"/>
<path d="M17.6321 12.1625L17.2436 11.9385C17.4185 10.9869 17.4185 10.0114 17.2436 9.05975L17.6321 8.83575C17.9308 8.66339 18.1927 8.43387 18.4028 8.1603C18.6128 7.88673 18.7669 7.57447 18.8563 7.24134C18.9457 6.90821 18.9686 6.56074 18.9237 6.21876C18.8788 5.87679 18.7669 5.54701 18.5946 5.24825C18.4222 4.94949 18.1927 4.68761 17.9191 4.47755C17.6456 4.2675 17.3333 4.11338 17.0002 4.024C16.667 3.93463 16.3196 3.91174 15.9776 3.95665C15.6356 4.00156 15.3058 4.11339 15.0071 4.28575L14.6177 4.51063C13.8823 3.8823 13.0372 3.39522 12.1248 3.07387V2.625C12.1248 1.92881 11.8483 1.26113 11.356 0.768845C10.8637 0.276562 10.196 0 9.49982 0C8.80363 0 8.13595 0.276562 7.64367 0.768845C7.15138 1.26113 6.87482 1.92881 6.87482 2.625V3.07387C5.96254 3.39637 5.11769 3.88465 4.38282 4.51412L3.9917 4.2875C3.38833 3.9394 2.6714 3.84525 1.99861 4.02575C1.32582 4.20626 0.752296 4.64663 0.404199 5.25C0.0561023 5.85337 -0.0380504 6.5703 0.142453 7.24309C0.322957 7.91588 0.763331 8.4894 1.3667 8.8375L1.7552 9.0615C1.58029 10.0131 1.58029 10.9886 1.7552 11.9403L1.3667 12.1643C0.763331 12.5123 0.322957 13.0859 0.142453 13.7587C-0.0380504 14.4314 0.0561023 15.1484 0.404199 15.7518C0.752296 16.3551 1.32582 16.7955 1.99861 16.976C2.6714 17.1565 3.38833 17.0623 3.9917 16.7142L4.38107 16.4894C5.11674 17.1178 5.96218 17.6049 6.87482 17.9261V18.375C6.87482 19.0712 7.15138 19.7389 7.64367 20.2312C8.13595 20.7234 8.80363 21 9.49982 21C10.196 21 10.8637 20.7234 11.356 20.2312C11.8483 19.7389 12.1248 19.0712 12.1248 18.375V17.9261C13.0371 17.6036 13.882 17.1153 14.6168 16.4859L15.0079 16.7116C15.6113 17.0597 16.3283 17.1539 17.001 16.9734C17.6738 16.7929 18.2474 16.3525 18.5954 15.7491C18.9435 15.1458 19.0377 14.4288 18.8572 13.756C18.6767 13.0832 18.2363 12.5097 17.6329 12.1616L17.6321 12.1625ZM15.4026 8.8585C15.6989 9.93218 15.6989 11.0661 15.4026 12.1397C15.3508 12.3266 15.3626 12.5254 15.4361 12.7048C15.5096 12.8843 15.6406 13.0342 15.8086 13.1311L16.7571 13.6789C16.9582 13.7949 17.1049 13.9861 17.1651 14.2103C17.2252 14.4345 17.1938 14.6735 17.0778 14.8746C16.9617 15.0756 16.7706 15.2224 16.5463 15.2825C16.3221 15.3427 16.0832 15.3113 15.8821 15.1952L14.9318 14.6458C14.7637 14.5484 14.568 14.5097 14.3755 14.5359C14.1831 14.562 14.0047 14.6515 13.8687 14.7901C13.0899 15.5852 12.1087 16.1525 11.0311 16.4307C10.843 16.4791 10.6763 16.5887 10.5573 16.7422C10.4384 16.8957 10.3739 17.0844 10.3739 17.2786V18.375C10.3739 18.6071 10.2818 18.8296 10.1177 18.9937C9.95357 19.1578 9.73101 19.25 9.49895 19.25C9.26688 19.25 9.04432 19.1578 8.88023 18.9937C8.71614 18.8296 8.62395 18.6071 8.62395 18.375V17.2795C8.62404 17.0853 8.55952 16.8966 8.44055 16.7431C8.32158 16.5895 8.15492 16.48 7.96682 16.4316C6.88913 16.1522 5.90824 15.5837 5.13007 14.7875C4.99403 14.6488 4.81572 14.5594 4.62324 14.5333C4.43075 14.5071 4.23504 14.5458 4.06695 14.6431L3.11845 15.1917C3.0189 15.2501 2.90879 15.2882 2.79446 15.3038C2.68013 15.3195 2.56383 15.3123 2.45227 15.2828C2.34071 15.2533 2.23608 15.2021 2.14442 15.132C2.05275 15.0619 1.97585 14.9743 1.91816 14.8744C1.86046 14.7745 1.8231 14.6641 1.80822 14.5497C1.79335 14.4353 1.80126 14.319 1.83149 14.2076C1.86172 14.0963 1.91369 13.992 1.98439 13.9008C2.05509 13.8096 2.14313 13.7333 2.24345 13.6763L3.19195 13.1285C3.3599 13.0316 3.49091 12.8816 3.5644 12.7022C3.63789 12.5228 3.64969 12.324 3.59795 12.1371C3.30164 11.0634 3.30164 9.92956 3.59795 8.85588C3.64876 8.6694 3.63639 8.47134 3.56279 8.29263C3.48918 8.11392 3.35848 7.9646 3.19107 7.868L2.24257 7.32025C2.04149 7.20422 1.89474 7.01306 1.8346 6.78882C1.77445 6.56459 1.80585 6.32565 1.92189 6.12456C2.03792 5.92348 2.22908 5.77672 2.45331 5.71658C2.67755 5.65644 2.91649 5.68784 3.11757 5.80387L4.06782 6.35337C4.23546 6.45095 4.43076 6.49006 4.62303 6.46456C4.81531 6.43906 4.99367 6.3504 5.13007 6.2125C5.9089 5.41743 6.89007 4.85014 7.9677 4.57188C8.15638 4.52337 8.32347 4.41328 8.4425 4.25906C8.56154 4.10484 8.6257 3.91531 8.62482 3.7205V2.625C8.62482 2.39294 8.71701 2.17038 8.88111 2.00628C9.0452 1.84219 9.26776 1.75 9.49982 1.75C9.73189 1.75 9.95445 1.84219 10.1185 2.00628C10.2826 2.17038 10.3748 2.39294 10.3748 2.625V3.7205C10.3747 3.91471 10.4392 4.10344 10.5582 4.25695C10.6772 4.41045 10.8439 4.52002 11.0319 4.56838C12.11 4.84763 13.0912 5.41615 13.8696 6.2125C14.0056 6.35116 14.1839 6.44061 14.3764 6.46675C14.5689 6.49289 14.7646 6.45423 14.9327 6.35687L15.8812 5.80825C15.9807 5.74989 16.0909 5.7118 16.2052 5.69616C16.3195 5.68053 16.4358 5.68767 16.5474 5.71716C16.6589 5.74666 16.7636 5.79793 16.8552 5.86802C16.9469 5.93812 17.0238 6.02565 17.0815 6.12559C17.1392 6.22552 17.1766 6.33588 17.1914 6.45032C17.2063 6.56475 17.1984 6.68099 17.1682 6.79236C17.1379 6.90372 17.086 7.008 17.0153 7.0992C16.9446 7.1904 16.8565 7.26672 16.7562 7.32375L15.8077 7.8715C15.6406 7.96837 15.5103 8.11779 15.437 8.29648C15.3637 8.47517 15.3516 8.67221 15.4026 8.8585Z" fill="#9C9C9C"/>
</svg>
