<svg width="21" height="21" viewBox="0 0 21 21" fill="none" xmlns="http://www.w3.org/2000/svg">
<g clip-path="url(#clip0_246_1262)">
<path d="M10.5 7C9.80777 7 9.13108 7.20527 8.55551 7.58986C7.97993 7.97444 7.53133 8.52107 7.26642 9.16061C7.00152 9.80015 6.9322 10.5039 7.06725 11.1828C7.2023 11.8617 7.53564 12.4854 8.02513 12.9749C8.51461 13.4644 9.13825 13.7977 9.81719 13.9327C10.4961 14.0678 11.1999 13.9985 11.8394 13.7336C12.4789 13.4687 13.0256 13.0201 13.4101 12.4445C13.7947 11.8689 14 11.1922 14 10.5C14 9.57174 13.6313 8.6815 12.9749 8.02513C12.3185 7.36875 11.4283 7 10.5 7ZM10.5 12.25C10.1539 12.25 9.81554 12.1474 9.52775 11.9551C9.23997 11.7628 9.01567 11.4895 8.88321 11.1697C8.75076 10.8499 8.7161 10.4981 8.78363 10.1586C8.85115 9.81913 9.01782 9.50731 9.26257 9.26256C9.50731 9.01782 9.81913 8.85115 10.1586 8.78363C10.4981 8.7161 10.8499 8.75076 11.1697 8.88321C11.4895 9.01566 11.7628 9.23997 11.9551 9.52775C12.1474 9.81554 12.25 10.1539 12.25 10.5C12.25 10.9641 12.0656 11.4092 11.7374 11.7374C11.4093 12.0656 10.9641 12.25 10.5 12.25Z" fill="#9C9C9C"/>
<path d="M18.6321 12.1625L18.2436 11.9385C18.4185 10.9869 18.4185 10.0114 18.2436 9.05975L18.6321 8.83575C18.9308 8.66339 19.1927 8.43387 19.4028 8.1603C19.6128 7.88673 19.7669 7.57447 19.8563 7.24134C19.9457 6.90821 19.9686 6.56074 19.9237 6.21876C19.8788 5.87679 19.7669 5.54701 19.5946 5.24825C19.4222 4.94949 19.1927 4.68761 18.9191 4.47755C18.6456 4.2675 18.3333 4.11338 18.0002 4.024C17.667 3.93463 17.3196 3.91174 16.9776 3.95665C16.6356 4.00156 16.3058 4.11339 16.0071 4.28575L15.6177 4.51063C14.8823 3.8823 14.0372 3.39522 13.1248 3.07387V2.625C13.1248 1.92881 12.8483 1.26113 12.356 0.768845C11.8637 0.276562 11.196 0 10.4998 0C9.80363 0 9.13595 0.276562 8.64367 0.768845C8.15138 1.26113 7.87482 1.92881 7.87482 2.625V3.07387C6.96254 3.39637 6.11769 3.88465 5.38282 4.51412L4.9917 4.2875C4.38833 3.9394 3.6714 3.84525 2.99861 4.02575C2.32582 4.20626 1.7523 4.64663 1.4042 5.25C1.0561 5.85337 0.96195 6.5703 1.14245 7.24309C1.32296 7.91588 1.76333 8.4894 2.3667 8.8375L2.7552 9.0615C2.58029 10.0131 2.58029 10.9886 2.7552 11.9403L2.3667 12.1643C1.76333 12.5123 1.32296 13.0859 1.14245 13.7587C0.96195 14.4314 1.0561 15.1484 1.4042 15.7518C1.7523 16.3551 2.32582 16.7955 2.99861 16.976C3.6714 17.1565 4.38833 17.0623 4.9917 16.7142L5.38107 16.4894C6.11674 17.1178 6.96218 17.6049 7.87482 17.9261V18.375C7.87482 19.0712 8.15138 19.7389 8.64367 20.2312C9.13595 20.7234 9.80363 21 10.4998 21C11.196 21 11.8637 20.7234 12.356 20.2312C12.8483 19.7389 13.1248 19.0712 13.1248 18.375V17.9261C14.0371 17.6036 14.882 17.1153 15.6168 16.4859L16.0079 16.7116C16.6113 17.0597 17.3283 17.1539 18.001 16.9734C18.6738 16.7929 19.2474 16.3525 19.5954 15.7491C19.9435 15.1458 20.0377 14.4288 19.8572 13.756C19.6767 13.0832 19.2363 12.5097 18.6329 12.1616L18.6321 12.1625ZM16.4026 8.8585C16.6989 9.93218 16.6989 11.0661 16.4026 12.1397C16.3508 12.3266 16.3626 12.5254 16.4361 12.7048C16.5096 12.8843 16.6406 13.0342 16.8086 13.1311L17.7571 13.6789C17.9582 13.7949 18.1049 13.9861 18.1651 14.2103C18.2252 14.4345 18.1938 14.6735 18.0778 14.8746C17.9617 15.0756 17.7706 15.2224 17.5463 15.2825C17.3221 15.3427 17.0832 15.3113 16.8821 15.1952L15.9318 14.6458C15.7637 14.5484 15.568 14.5097 15.3755 14.5359C15.1831 14.562 15.0047 14.6515 14.8687 14.7901C14.0899 15.5852 13.1087 16.1525 12.0311 16.4307C11.843 16.4791 11.6763 16.5887 11.5573 16.7422C11.4384 16.8957 11.3739 17.0844 11.3739 17.2786V18.375C11.3739 18.6071 11.2818 18.8296 11.1177 18.9937C10.9536 19.1578 10.731 19.25 10.4989 19.25C10.2669 19.25 10.0443 19.1578 9.88023 18.9937C9.71614 18.8296 9.62395 18.6071 9.62395 18.375V17.2795C9.62404 17.0853 9.55952 16.8966 9.44055 16.7431C9.32158 16.5895 9.15492 16.48 8.96682 16.4316C7.88913 16.1522 6.90824 15.5837 6.13007 14.7875C5.99403 14.6488 5.81572 14.5594 5.62324 14.5333C5.43075 14.5071 5.23504 14.5458 5.06695 14.6431L4.11845 15.1917C4.0189 15.2501 3.90879 15.2882 3.79446 15.3038C3.68013 15.3195 3.56383 15.3123 3.45227 15.2828C3.34071 15.2533 3.23608 15.2021 3.14442 15.132C3.05275 15.0619 2.97585 14.9743 2.91816 14.8744C2.86046 14.7745 2.8231 14.6641 2.80822 14.5497C2.79335 14.4353 2.80126 14.319 2.83149 14.2076C2.86172 14.0963 2.91369 13.992 2.98439 13.9008C3.05509 13.8096 3.14313 13.7333 3.24345 13.6763L4.19195 13.1285C4.3599 13.0316 4.49091 12.8816 4.5644 12.7022C4.63789 12.5228 4.64969 12.324 4.59795 12.1371C4.30164 11.0634 4.30164 9.92956 4.59795 8.85588C4.64876 8.6694 4.63639 8.47134 4.56279 8.29263C4.48918 8.11392 4.35848 7.9646 4.19107 7.868L3.24257 7.32025C3.04149 7.20422 2.89474 7.01306 2.8346 6.78882C2.77445 6.56459 2.80585 6.32565 2.92189 6.12456C3.03792 5.92348 3.22908 5.77672 3.45331 5.71658C3.67755 5.65644 3.91649 5.68784 4.11757 5.80387L5.06782 6.35337C5.23546 6.45095 5.43076 6.49006 5.62303 6.46456C5.81531 6.43906 5.99367 6.3504 6.13007 6.2125C6.9089 5.41743 7.89007 4.85014 8.9677 4.57188C9.15638 4.52337 9.32347 4.41328 9.4425 4.25906C9.56154 4.10484 9.6257 3.91531 9.62482 3.7205V2.625C9.62482 2.39294 9.71701 2.17038 9.88111 2.00628C10.0452 1.84219 10.2678 1.75 10.4998 1.75C10.7319 1.75 10.9544 1.84219 11.1185 2.00628C11.2826 2.17038 11.3748 2.39294 11.3748 2.625V3.7205C11.3747 3.91471 11.4392 4.10344 11.5582 4.25695C11.6772 4.41045 11.8439 4.52002 12.0319 4.56838C13.11 4.84763 14.0912 5.41615 14.8696 6.2125C15.0056 6.35116 15.1839 6.44061 15.3764 6.46675C15.5689 6.49289 15.7646 6.45423 15.9327 6.35687L16.8812 5.80825C16.9807 5.74989 17.0909 5.7118 17.2052 5.69616C17.3195 5.68053 17.4358 5.68767 17.5474 5.71716C17.6589 5.74666 17.7636 5.79793 17.8552 5.86802C17.9469 5.93812 18.0238 6.02565 18.0815 6.12559C18.1392 6.22552 18.1766 6.33588 18.1914 6.45032C18.2063 6.56475 18.1984 6.68099 18.1682 6.79236C18.1379 6.90372 18.086 7.008 18.0153 7.0992C17.9446 7.1904 17.8565 7.26672 17.7562 7.32375L16.8077 7.8715C16.6406 7.96837 16.5103 8.11779 16.437 8.29648C16.3637 8.47517 16.3516 8.67309 16.4026 8.85938V8.8585Z" fill="#9C9C9C"/>
</g>
<defs>
<clipPath id="clip0_246_1262">
<path d="M0 10C0 4.47715 4.47715 0 10 0H21V21H10C4.47715 21 0 16.5228 0 11V10Z" fill="white"/>
</clipPath>
</defs>
</svg>
