<svg width="19" height="21" viewBox="0 0 19 21" fill="none" xmlns="http://www.w3.org/2000/svg">
<path d="M17.375 3.5H14.6625C14.4594 2.51249 13.9221 1.62518 13.1411 0.987628C12.3601 0.350079 11.3832 0.00127271 10.375 0H8.625C7.61682 0.00127271 6.6399 0.350079 5.85891 0.987628C5.07791 1.62518 4.54058 2.51249 4.3375 3.5H1.625C1.39294 3.5 1.17038 3.59219 1.00628 3.75628C0.842187 3.92038 0.75 4.14294 0.75 4.375C0.75 4.60706 0.842187 4.82962 1.00628 4.99372C1.17038 5.15781 1.39294 5.25 1.625 5.25H2.5V16.625C2.50139 17.7849 2.96277 18.8969 3.78294 19.7171C4.60311 20.5372 5.71511 20.9986 6.875 21H12.125C13.2849 20.9986 14.3969 20.5372 15.2171 19.7171C16.0372 18.8969 16.4986 17.7849 16.5 16.625V5.25H17.375C17.6071 5.25 17.8296 5.15781 17.9937 4.99372C18.1578 4.82962 18.25 4.60706 18.25 4.375C18.25 4.14294 18.1578 3.92038 17.9937 3.75628C17.8296 3.59219 17.6071 3.5 17.375 3.5ZM8.625 1.75H10.375C10.9177 1.75066 11.447 1.9192 11.8902 2.23251C12.3333 2.54582 12.6687 2.98856 12.8504 3.5H6.14963C6.33126 2.98856 6.66666 2.54582 7.10984 2.23251C7.55301 1.9192 8.08226 1.75066 8.625 1.75ZM14.75 16.625C14.75 17.3212 14.4734 17.9889 13.9812 18.4812C13.4889 18.9734 12.8212 19.25 12.125 19.25H6.875C6.17881 19.25 5.51113 18.9734 5.01885 18.4812C4.52656 17.9889 4.25 17.3212 4.25 16.625V5.25H14.75V16.625Z" fill="#9C9C9C"/>
<path d="M7.75 15.75C7.98206 15.75 8.20462 15.6578 8.36872 15.4937C8.53281 15.3296 8.625 15.1071 8.625 14.875V9.625C8.625 9.39294 8.53281 9.17038 8.36872 9.00628C8.20462 8.84219 7.98206 8.75 7.75 8.75C7.51794 8.75 7.29538 8.84219 7.13128 9.00628C6.96719 9.17038 6.875 9.39294 6.875 9.625V14.875C6.875 15.1071 6.96719 15.3296 7.13128 15.4937C7.29538 15.6578 7.51794 15.75 7.75 15.75Z" fill="#9C9C9C"/>
<path d="M11.25 15.75C11.4821 15.75 11.7046 15.6578 11.8687 15.4937C12.0328 15.3296 12.125 15.1071 12.125 14.875V9.625C12.125 9.39294 12.0328 9.17038 11.8687 9.00628C11.7046 8.84219 11.4821 8.75 11.25 8.75C11.0179 8.75 10.7954 8.84219 10.6313 9.00628C10.4672 9.17038 10.375 9.39294 10.375 9.625V14.875C10.375 15.1071 10.4672 15.3296 10.6313 15.4937C10.7954 15.6578 11.0179 15.75 11.25 15.75Z" fill="#9C9C9C"/>
</svg>
