<svg width="21" height="21" viewBox="0 0 21 21" fill="none" xmlns="http://www.w3.org/2000/svg">
<g clip-path="url(#clip0_246_1268)">
<path d="M18.375 3.5H15.6625C15.4594 2.51249 14.9221 1.62518 14.1411 0.987628C13.3601 0.350079 12.3832 0.00127271 11.375 0L9.625 0C8.61682 0.00127271 7.6399 0.350079 6.85891 0.987628C6.07791 1.62518 5.54058 2.51249 5.3375 3.5H2.625C2.39294 3.5 2.17038 3.59219 2.00628 3.75628C1.84219 3.92038 1.75 4.14294 1.75 4.375C1.75 4.60706 1.84219 4.82962 2.00628 4.99372C2.17038 5.15781 2.39294 5.25 2.625 5.25H3.5V16.625C3.50139 17.7849 3.96277 18.8969 4.78294 19.7171C5.60311 20.5372 6.71511 20.9986 7.875 21H13.125C14.2849 20.9986 15.3969 20.5372 16.2171 19.7171C17.0372 18.8969 17.4986 17.7849 17.5 16.625V5.25H18.375C18.6071 5.25 18.8296 5.15781 18.9937 4.99372C19.1578 4.82962 19.25 4.60706 19.25 4.375C19.25 4.14294 19.1578 3.92038 18.9937 3.75628C18.8296 3.59219 18.6071 3.5 18.375 3.5ZM9.625 1.75H11.375C11.9177 1.75066 12.447 1.9192 12.8902 2.23251C13.3333 2.54582 13.6687 2.98856 13.8504 3.5H7.14963C7.33126 2.98856 7.66666 2.54582 8.10984 2.23251C8.55301 1.9192 9.08226 1.75066 9.625 1.75ZM15.75 16.625C15.75 17.3212 15.4734 17.9889 14.9812 18.4812C14.4889 18.9734 13.8212 19.25 13.125 19.25H7.875C7.17881 19.25 6.51113 18.9734 6.01885 18.4812C5.52656 17.9889 5.25 17.3212 5.25 16.625V5.25H15.75V16.625Z" fill="#9C9C9C"/>
<path d="M8.75 15.75C8.98206 15.75 9.20462 15.6578 9.36872 15.4937C9.53281 15.3296 9.625 15.1071 9.625 14.875V9.625C9.625 9.39294 9.53281 9.17038 9.36872 9.00628C9.20462 8.84219 8.98206 8.75 8.75 8.75C8.51794 8.75 8.29538 8.84219 8.13128 9.00628C7.96719 9.17038 7.875 9.39294 7.875 9.625V14.875C7.875 15.1071 7.96719 15.3296 8.13128 15.4937C8.29538 15.6578 8.51794 15.75 8.75 15.75Z" fill="#9C9C9C"/>
<path d="M12.25 15.75C12.4821 15.75 12.7046 15.6578 12.8687 15.4937C13.0328 15.3296 13.125 15.1071 13.125 14.875V9.625C13.125 9.39294 13.0328 9.17038 12.8687 9.00628C12.7046 8.84219 12.4821 8.75 12.25 8.75C12.0179 8.75 11.7954 8.84219 11.6313 9.00628C11.4672 9.17038 11.375 9.39294 11.375 9.625V14.875C11.375 15.1071 11.4672 15.3296 11.6313 15.4937C11.7954 15.6578 12.0179 15.75 12.25 15.75Z" fill="#9C9C9C"/>
</g>
<defs>
<clipPath id="clip0_246_1268">
<rect width="21" height="21" fill="white"/>
</clipPath>
</defs>
</svg>
