<svg width="21" height="21" viewBox="0 0 21 21" fill="none" xmlns="http://www.w3.org/2000/svg">
<path d="M16.625 0H4.375C3.2151 0.00138938 2.10311 0.462772 1.28294 1.28294C0.462772 2.10311 0.00138938 3.2151 0 4.375V16.625C0.00138938 17.7849 0.462772 18.8969 1.28294 19.7171C2.10311 20.5372 3.2151 20.9986 4.375 21H16.625C17.7849 20.9986 18.8969 20.5372 19.7171 19.7171C20.5372 18.8969 20.9986 17.7849 21 16.625V4.375C20.9986 3.2151 20.5372 2.10311 19.7171 1.28294C18.8969 0.462772 17.7849 0.00138938 16.625 0ZM4.375 1.75H16.625C17.3212 1.75 17.9889 2.02656 18.4812 2.51884C18.9734 3.01113 19.25 3.67881 19.25 4.375V16.625C19.2485 17.0148 19.1587 17.3992 18.9875 17.7494L10.9699 9.73175C10.5636 9.32537 10.0813 9.00301 9.55038 8.78307C9.01951 8.56314 8.45051 8.44993 7.87588 8.44993C7.30125 8.44993 6.73224 8.56314 6.20137 8.78307C5.67049 9.00301 5.18815 9.32537 4.78188 9.73175L1.75 12.7628V4.375C1.75 3.67881 2.02656 3.01113 2.51884 2.51884C3.01113 2.02656 3.67881 1.75 4.375 1.75ZM4.375 19.25C3.67881 19.25 3.01113 18.9734 2.51884 18.4812C2.02656 17.9889 1.75 17.3212 1.75 16.625V15.2372L6.01825 10.969C6.26203 10.7251 6.55148 10.5316 6.87007 10.3995C7.18866 10.2675 7.53014 10.1996 7.875 10.1996C8.21986 10.1996 8.56134 10.2675 8.87993 10.3995C9.19852 10.5316 9.48797 10.7251 9.73175 10.969L17.7494 18.9875C17.3992 19.1587 17.0148 19.2485 16.625 19.25H4.375Z" fill="black"/>
<path d="M14 9.1875C14.6057 9.1875 15.1978 9.00789 15.7014 8.67138C16.2051 8.33486 16.5976 7.85657 16.8294 7.29697C17.0612 6.73737 17.1218 6.1216 17.0037 5.52754C16.8855 4.93347 16.5938 4.38778 16.1655 3.95949C15.7372 3.53119 15.1915 3.23951 14.5975 3.12134C14.0034 3.00318 13.3876 3.06383 12.828 3.29562C12.2684 3.52741 11.7901 3.91994 11.4536 4.42357C11.1171 4.92719 10.9375 5.51929 10.9375 6.125C10.9375 6.93723 11.2602 7.71618 11.8345 8.29051C12.4088 8.86485 13.1878 9.1875 14 9.1875ZM14 4.8125C14.2596 4.8125 14.5133 4.88948 14.7292 5.0337C14.945 5.17792 15.1133 5.3829 15.2126 5.62273C15.3119 5.86256 15.3379 6.12646 15.2873 6.38106C15.2366 6.63566 15.1116 6.86952 14.9281 7.05308C14.7445 7.23663 14.5107 7.36164 14.2561 7.41228C14.0015 7.46292 13.7376 7.43693 13.4977 7.33759C13.2579 7.23825 13.0529 7.07003 12.9087 6.85419C12.7645 6.63835 12.6875 6.38459 12.6875 6.125C12.6875 5.7769 12.8258 5.44306 13.0719 5.19692C13.3181 4.95078 13.6519 4.8125 14 4.8125Z" fill="black"/>
</svg>
