<svg width="19" height="19" viewBox="0 0 19 19" fill="none" xmlns="http://www.w3.org/2000/svg">
<path d="M8.71387 2.04096L8.70833 14.2627C8.70833 14.4727 8.79174 14.674 8.94021 14.8225C9.08867 14.971 9.29004 15.0544 9.5 15.0544C9.70996 15.0544 9.91133 14.971 10.0598 14.8225C10.2083 14.674 10.2917 14.4727 10.2917 14.2627L10.2972 2.05442L12.6025 4.36054C12.751 4.50896 12.9523 4.59233 13.1622 4.59233C13.3722 4.59233 13.5735 4.50896 13.722 4.36054C13.8704 4.21208 13.9537 4.01076 13.9537 3.80083C13.9537 3.59091 13.8704 3.38958 13.722 3.24112L11.1799 0.695916C10.9594 0.475215 10.6975 0.300138 10.4092 0.180688C10.121 0.0612375 9.81202 -0.000244141 9.5 -0.000244141C9.18798 -0.000244141 8.87902 0.0612375 8.59077 0.180688C8.30253 0.300138 8.04064 0.475215 7.82008 0.695916L5.27804 3.23875C5.12963 3.38721 5.04625 3.58854 5.04625 3.79846C5.04625 4.00838 5.12963 4.20971 5.27804 4.35817C5.4265 4.50658 5.62783 4.58996 5.83775 4.58996C6.04767 4.58996 6.249 4.50658 6.39746 4.35817L8.71387 2.04096Z" fill="#464646"/>
<path d="M17.4167 13.4584V16.625C17.4167 16.835 17.3333 17.0364 17.1848 17.1848C17.0363 17.3333 16.835 17.4167 16.625 17.4167H2.375C2.16504 17.4167 1.96367 17.3333 1.81521 17.1848C1.66674 17.0364 1.58333 16.835 1.58333 16.625V13.4584C1.58333 13.2484 1.49993 13.047 1.35146 12.8986C1.20299 12.7501 1.00163 12.6667 0.791667 12.6667C0.581704 12.6667 0.38034 12.7501 0.231874 12.8986C0.0834075 13.047 0 13.2484 0 13.4584V16.625C0 17.2549 0.250222 17.859 0.695621 18.3044C1.14102 18.7498 1.74511 19 2.375 19H16.625C17.2549 19 17.859 18.7498 18.3044 18.3044C18.7498 17.859 19 17.2549 19 16.625V13.4584C19 13.2484 18.9166 13.047 18.7681 12.8986C18.6197 12.7501 18.4183 12.6667 18.2083 12.6667C17.9984 12.6667 17.797 12.7501 17.6485 12.8986C17.5001 13.047 17.4167 13.2484 17.4167 13.4584Z" fill="#464646"/>
</svg>
