<svg width="21" height="21" viewBox="0 0 21 21" fill="none" xmlns="http://www.w3.org/2000/svg">
<path d="M9.63112 2.25582L9.625 15.7641C9.625 15.9961 9.71719 16.2187 9.88128 16.3828C10.0454 16.5469 10.2679 16.6391 10.5 16.6391C10.7321 16.6391 10.9546 16.5469 11.1187 16.3828C11.2828 16.2187 11.375 15.9961 11.375 15.7641L11.3811 2.2707L13.9291 4.81957C14.0932 4.98361 14.3157 5.07576 14.5477 5.07576C14.7798 5.07576 15.0023 4.98361 15.1664 4.81957C15.3304 4.65548 15.4226 4.43296 15.4226 4.20095C15.4226 3.96893 15.3304 3.74641 15.1664 3.58232L12.3567 0.769195C12.113 0.525263 11.8235 0.331757 11.5049 0.199733C11.1863 0.0677093 10.8449 -0.000244141 10.5 -0.000244141C10.1551 -0.000244141 9.81366 0.0677093 9.49507 0.199733C9.17648 0.331757 8.88703 0.525263 8.64325 0.769195L5.83362 3.5797C5.66959 3.74378 5.57744 3.9663 5.57744 4.19832C5.57744 4.43034 5.66959 4.65286 5.83362 4.81695C5.99771 4.98098 6.22023 5.07313 6.45225 5.07313C6.68427 5.07313 6.90679 4.98098 7.07088 4.81695L9.63112 2.25582Z" fill="white"/>
<path d="M19.25 14.8751V18.3751C19.25 18.6071 19.1578 18.8297 18.9937 18.9938C18.8296 19.1579 18.6071 19.2501 18.375 19.2501H2.625C2.39294 19.2501 2.17038 19.1579 2.00628 18.9938C1.84219 18.8297 1.75 18.6071 1.75 18.3751V14.8751C1.75 14.643 1.65781 14.4204 1.49372 14.2564C1.32962 14.0923 1.10706 14.0001 0.875 14.0001C0.642936 14.0001 0.420376 14.0923 0.256282 14.2564C0.0921873 14.4204 0 14.643 0 14.8751V18.3751C0 19.0713 0.276562 19.7389 0.768845 20.2312C1.26113 20.7235 1.92881 21.0001 2.625 21.0001H18.375C19.0712 21.0001 19.7389 20.7235 20.2312 20.2312C20.7234 19.7389 21 19.0713 21 18.3751V14.8751C21 14.643 20.9078 14.4204 20.7437 14.2564C20.5796 14.0923 20.3571 14.0001 20.125 14.0001C19.8929 14.0001 19.6704 14.0923 19.5063 14.2564C19.3422 14.4204 19.25 14.643 19.25 14.8751Z" fill="white"/>
</svg>
