<svg width="17" height="17" viewBox="0 0 17 17" fill="none" xmlns="http://www.w3.org/2000/svg">
<path d="M6.99692 12.8364C7.19426 13.0339 7.42858 13.1905 7.68648 13.2974C7.94439 13.4043 8.22083 13.4593 8.5 13.4593C8.77917 13.4593 9.05561 13.4043 9.31352 13.2974C9.57142 13.1905 9.80574 13.0339 10.0031 12.8364L12.2775 10.562C12.3995 10.4271 12.4649 10.2505 12.4602 10.0687C12.4556 9.88695 12.3812 9.71393 12.2525 9.5855C12.1238 9.45706 11.9506 9.38304 11.7688 9.37876C11.587 9.37448 11.4106 9.44027 11.276 9.5625L9.20337 11.6358L9.20833 0.708333C9.20833 0.520472 9.13371 0.340304 9.00087 0.207466C8.86803 0.0746278 8.68786 0 8.5 0C8.31214 0 8.13197 0.0746278 7.99913 0.207466C7.86629 0.340304 7.79167 0.520472 7.79167 0.708333L7.78529 11.6223L5.72404 9.5625C5.59113 9.42968 5.4109 9.3551 5.223 9.35517C5.0351 9.35524 4.85492 9.42994 4.7221 9.56285C4.58929 9.69577 4.51471 9.876 4.51477 10.0639C4.51484 10.2518 4.58955 10.432 4.72246 10.5648L6.99692 12.8364Z" fill="#9C9C9C"/>
<path d="M16.2917 11.3333C16.1038 11.3333 15.9236 11.408 15.7908 11.5408C15.658 11.6736 15.5833 11.8538 15.5833 12.0417V14.875C15.5833 15.0629 15.5087 15.243 15.3759 15.3759C15.243 15.5087 15.0629 15.5833 14.875 15.5833H2.125C1.93714 15.5833 1.75697 15.5087 1.62413 15.3759C1.49129 15.243 1.41667 15.0629 1.41667 14.875V12.0417C1.41667 11.8538 1.34204 11.6736 1.2092 11.5408C1.07636 11.408 0.896195 11.3333 0.708333 11.3333C0.520472 11.3333 0.340304 11.408 0.207466 11.5408C0.0746278 11.6736 0 11.8538 0 12.0417V14.875C0 15.4386 0.223883 15.9791 0.622398 16.3776C1.02091 16.7761 1.56141 17 2.125 17H14.875C15.4386 17 15.9791 16.7761 16.3776 16.3776C16.7761 15.9791 17 15.4386 17 14.875V12.0417C17 11.8538 16.9254 11.6736 16.7925 11.5408C16.6597 11.408 16.4795 11.3333 16.2917 11.3333Z" fill="#9C9C9C"/>
</svg>
